<?xml version="1.0" encoding="UTF-8"?>
<svg xmlns="http://www.w3.org/2000/svg" xmlns:xlink="http://www.w3.org/1999/xlink" width="20px" height="20px" viewBox="0 0 20 20" version="1.1">
<g id="surface1">
<path style=" stroke:none;fill-rule:evenodd;fill:rgb(100%,100%,100%);fill-opacity:1;" d="M 20 10 C 20 4.476562 15.523438 0 10 0 C 4.476562 0 0 4.476562 0 10 C 0 15.523438 4.476562 20 10 20 C 15.523438 20 20 15.523438 20 10 Z M 4.527344 9.894531 C 7.441406 8.625 9.386719 7.789062 10.359375 7.382812 C 13.136719 6.226562 13.710938 6.027344 14.089844 6.019531 C 14.171875 6.019531 14.355469 6.039062 14.476562 6.136719 C 14.578125 6.21875 14.605469 6.328125 14.617188 6.40625 C 14.632812 6.484375 14.648438 6.664062 14.636719 6.800781 C 14.484375 8.382812 13.832031 12.21875 13.503906 13.992188 C 13.363281 14.738281 13.085938 14.992188 12.820312 15.015625 C 12.238281 15.070312 11.796875 14.632812 11.234375 14.261719 C 10.355469 13.6875 9.855469 13.328125 9.003906 12.765625 C 8.015625 12.113281 8.65625 11.757812 9.21875 11.171875 C 9.367188 11.019531 11.925781 8.691406 11.972656 8.480469 C 11.980469 8.453125 11.984375 8.355469 11.925781 8.304688 C 11.867188 8.25 11.78125 8.269531 11.71875 8.285156 C 11.632812 8.304688 10.226562 9.234375 7.503906 11.070312 C 7.101562 11.34375 6.742188 11.480469 6.417969 11.472656 C 6.058594 11.464844 5.375 11.269531 4.863281 11.105469 C 4.238281 10.902344 3.738281 10.792969 3.78125 10.445312 C 3.804688 10.265625 4.054688 10.082031 4.527344 9.894531 Z M 4.527344 9.894531 "/>
</g> 
</svg>
